<?xml version="1.0" encoding="utf-8"?>
<!-- Generator: Adobe Illustrator 22.1.0, SVG Export Plug-In . SVG Version: 6.00 Build 0)  -->
<svg version="1.1" id="Слой_2_1_" xmlns="http://www.w3.org/2000/svg" xmlns:xlink="http://www.w3.org/1999/xlink" x="0px"
	 y="0px" viewBox="0 0 500 500" style="enable-background:new 0 0 500 500;" xml:space="preserve">
<style type="text/css">
	.st0{fill:#0055A0;}
</style>
<g>
	<path class="st0" d="M416.7,175.9c7.8-10.2,7.8-27.2-13.1-57.2c-14.7-21.1-49.4-51.9-74-67.3c-2.2-1.4-4.5-2.8-6.8-4.2V9
		c0-2.6-2-4.6-4.6-4.6H85.1c-2.6,0-4.6,2-4.6,4.6v432.9H63.7c-1.9,0-3.4,1.5-3.4,3.4v47.1c0,1.9,1.5,3.4,3.4,3.4h276
		c1.9,0,3.4-1.5,3.4-3.4v-47.1c0-1.9-1.5-3.4-3.4-3.4h-16.8V322.4c12.1,49.8,33,103.3,58.1,114.8c3.2,1.5,7.3,2.7,12.1,2.7
		c5.2,0,11.4-1.5,17.9-5.9C449.5,408.3,460,291,416.7,175.9z M114.2,42.6c0-2.6,2-4.6,4.6-4.6h165.7c2.6,0,4.6,2,4.6,4.6v159
		c0,2.6-2,4.6-4.6,4.6H118.8c-2.6,0-4.6-2-4.6-4.6C114.2,201.6,114.2,42.6,114.2,42.6z M398.9,407.9c-6.4,4.3-10.7,3.3-13.6,1.9
		c-28.6-13.1-52.5-117.1-62.5-188V84.9c3.6,3.6,7.9,7.9,13.5,13.5c26.9,26.9,13.5,47.3,40.4,80.9c5.2,6.6,15.8,9.4,25.3,7.5
		C435.7,290.7,424.6,390.7,398.9,407.9z"/>
</g>
</svg>
