<?xml version="1.0" encoding="utf-8"?>
<!-- Generator: Adobe Illustrator 22.1.0, SVG Export Plug-In . SVG Version: 6.00 Build 0)  -->
<svg version="1.1" id="Слой_2_1_" xmlns="http://www.w3.org/2000/svg" xmlns:xlink="http://www.w3.org/1999/xlink" x="0px"
	 y="0px" viewBox="0 0 500 500" style="enable-background:new 0 0 500 500;" xml:space="preserve">
<style type="text/css">
	.st0{fill:#0055A0;}
</style>
<g>
	<path class="st0" d="M141,290.1h231.1c0,0,108.7,0,108.7-74.8c0-54.4-47.6-68-47.6-68c24.5-53.1-19.7-121-82.6-138.6
		C309-2.9,243,11.4,222.6,72.6c-27.2-20.4-57.2-14.2-74.8-6.8c-40.7,17-47.6,68-47.6,68s-81.1,0-81.1,78.1
		C19.1,253.3,39.3,290.1,141,290.1z"/>
	<path class="st0" d="M124.6,393.9c-7.9,13.6-25.3,18.3-38.9,10.4S67.4,379,75.3,365.4s53.1-35.1,53.1-35.1S132.4,380.3,124.6,393.9
		z"/>
	<path class="st0" d="M249.3,480.7c-7.9,13.6-25.3,18.3-38.9,10.4s-18.3-25.3-10.4-38.9c7.9-13.6,53.1-35.1,53.1-35.1
		S257.2,467.1,249.3,480.7z"/>
	<path class="st0" d="M412,399c-7.9,13.6-25.3,18.3-38.9,10.4s-18.3-25.3-10.4-38.9s53.1-35.1,53.1-35.1S419.9,385.4,412,399z"/>
</g>
</svg>
