<?xml version="1.0" encoding="utf-8"?>
<!-- Generator: Adobe Illustrator 22.1.0, SVG Export Plug-In . SVG Version: 6.00 Build 0)  -->
<svg version="1.1" id="Слой_2_1_" xmlns="http://www.w3.org/2000/svg" xmlns:xlink="http://www.w3.org/1999/xlink" x="0px"
	 y="0px" viewBox="0 0 500 500" style="enable-background:new 0 0 500 500;" xml:space="preserve">
<style type="text/css">
	.st0{fill:#0055A0;}
</style>
<path class="st0" d="M134.6,341.8H62.3c-31.3,0-56.9-25.6-56.9-56.9v-69.7c0-31.3,25.6-56.9,56.9-56.9h72.4
	c31.3,0,56.9,25.6,56.9,56.9v69.7C191.6,316.2,165.9,341.8,134.6,341.8z"/>
<path class="st0" d="M263.6,422.9L56.1,310.1c-2-1.1-3.3-3.2-3.3-5.5V195.5c0-2.3,1.3-4.4,3.3-5.5L263.6,77.1
	c4.2-2.3,9.3,0.8,9.3,5.5c0,0,20.8,75.7,20.8,168.6c0,90.6-20.8,166.1-20.8,166.1C272.9,422.1,267.8,425.1,263.6,422.9z"/>
<path class="st0" d="M368.3,393.8c-2.3,0-4.6-0.5-6.8-1.4c-8.6-3.8-12.6-13.8-8.8-22.5c16.4-37.5,24.7-77.4,24.7-118.6
	s-8.3-81.1-24.7-118.6c-3.8-8.6,0.2-18.7,8.8-22.5c8.6-3.8,18.7,0.2,22.5,8.8c18.3,41.8,27.5,86.3,27.5,132.3s-9.3,90.5-27.5,132.3
	C381.1,390,374.8,393.8,368.3,393.8z"/>
<path class="st0" d="M472.3,138.9c-1.7-3.9-4.9-7-8.9-8.6s-8.4-1.5-12.4,0.2c-3.9,1.7-7,4.9-8.6,8.9s-1.5,8.4,0.2,12.4
	c13.8,31.6,20.5,64.1,20.5,99.4c0,43.5-8.2,71.2-20.5,99.4c-3.6,8.2,0.2,17.7,8.3,21.3h0.1c2.1,0.9,4.2,1.3,6.4,1.3
	c6.4,0,12.2-3.8,14.9-9.7c15.6-35.9,23.2-72.6,23.2-112.4C495.5,211.9,487.7,174.1,472.3,138.9z"/>
</svg>
