<?xml version="1.0" encoding="utf-8"?>
<!-- Generator: Adobe Illustrator 22.1.0, SVG Export Plug-In . SVG Version: 6.00 Build 0)  -->
<svg version="1.1" id="Слой_1" xmlns="http://www.w3.org/2000/svg" xmlns:xlink="http://www.w3.org/1999/xlink" x="0px" y="0px"
	 viewBox="0 0 512 512" style="enable-background:new 0 0 512 512;" xml:space="preserve">
<style type="text/css">
	.st0{fill:#ABABAB;}
</style>
<path class="st0" d="M112.2,372.9h166c0,0,78.1,0,78.1-53.7c0-39.1-34.2-48.8-34.2-48.8c17.6-38.1-14.1-86.9-59.3-99.6
	c-29.9-8.3-77.3,1.9-91.9,45.9c-19.5-14.7-41.1-10.2-53.7-4.9C88,224,83,260.6,83,260.6s-58.3,0-58.3,56.1
	C24.7,346.4,39.2,372.9,112.2,372.9z"/>
<path class="st0" d="M83.6,440.6c-7,12.1-22.5,16.2-34.5,9.3c-12.1-7-16.2-22.5-9.3-34.5c7-12.1,47.1-31.1,47.1-31.1
	S90.5,428.6,83.6,440.6z"/>
<path class="st0" d="M174.1,496c-7.4,12.7-23.5,16.9-36.1,9.7c-12.7-7.4-16.9-23.5-9.7-36.1c7.4-12.7,49.3-32.6,49.3-32.6
	S181.5,483.3,174.1,496z"/>
<path class="st0" d="M289.3,449.3c-7.6,13.1-24.4,17.5-37.3,10c-13.1-7.6-17.5-24.4-10-37.3c7.6-13.1,51-33.7,51-33.7
	S297,436.2,289.3,449.3z"/>
<path class="st0" d="M502.6,232l-37.7-31.8c-6.2-5.3-6.2-14.9,0-20.1l37.7-31.8c10.2-8.6,4.8-25.3-8.5-26.2l-49.2-3.7
	c-8.1-0.6-13.8-8.3-11.9-16.2l11.7-47.9c3.1-13-11-23.2-22.3-16.2l-41.9,26c-6.9,4.2-16,1.3-19.1-6.2l-18.7-45.7
	c-5.1-12.3-22.5-12.3-27.6,0.2L296.4,58c-3.1,7.5-12.2,10.5-19.1,6.2l-41.9-26c-11.3-7-25.5,3.2-22.3,16.2l11.7,47.9
	c1.9,7.9-3.7,15.7-11.9,16.2l-49.2,3.7c-13.2,1-18.7,17.6-8.5,26.2l28.8,24.3c14.7-18.8,36.6-28.1,57.6-30.3
	c16.9-30.8,49.7-51.8,87.3-51.8c54.9,0,99.5,44.6,99.5,99.5c0,39.8-23.5,74.3-57.4,90.2c4.6,7.7,7.9,17.7,7.9,30.5
	c0,1.5-0.1,3-0.2,4.5c0.6,0.2,1.1,0.5,1.7,0.9l41.9,26c11.3,7,25.5-3.2,22.3-16.2L433,278.2c-1.9-7.9,3.7-15.7,11.9-16.2l49.2-3.7
	C507.3,257.3,512.7,240.7,502.6,232z"/>
<path class="st0" d="M405,190.2c0-41.9-34.2-76.1-76.1-76.1c-24.4,0-46.1,11.6-60.1,29.5c1.9,0.4,3.8,0.8,5.6,1.3
	c50.5,14.1,86.1,68.7,66.4,111.4c0,0,5.6,1.6,12.5,6C383.3,252.1,405,223.7,405,190.2z"/>
</svg>
