<?xml version="1.0" encoding="utf-8"?>
<!-- Generator: Adobe Illustrator 22.1.0, SVG Export Plug-In . SVG Version: 6.00 Build 0)  -->
<svg version="1.1" id="Слой_1" xmlns="http://www.w3.org/2000/svg" xmlns:xlink="http://www.w3.org/1999/xlink" x="0px" y="0px"
	 viewBox="0 0 640 512" style="enable-background:new 0 0 640 512;" xml:space="preserve">
<style type="text/css">
	.st0{fill:#7AB51D;}
</style>
<path class="st0" d="M342.8,352.7c5.7-9.6,9.3-20.7,9.3-32.7c0-35.4-28.6-64-64-64c-17.2,0-32.8,6.9-44.3,17.9
	C227.4,244.3,196.2,224,160,224c-53,0-96,43-96,96c0,2,0.5,3.8,0.6,5.7C27.1,338.8,0,374,0,416c0,53,43,96,96,96h240
	c44.2,0,80-35.8,80-80C416,390.1,383.7,356.2,342.8,352.7z M585.9,252.9c-7.8-6.8-7.8-19,0-25.8l47.5-41.1c12.8-11.1,5.8-32-11-33.3
	l-61.6-4.7c-10.2-0.8-17.3-10.5-14.9-20.4l15-62.5c3.9-16.3-14-29-28.1-20.1l-52.5,33.3c-8.6,5.5-20.1,1.8-23.9-7.7L433,11.8
	c-6.3-15.8-28.2-15.8-34.5,0l-23.4,58.5c-3.8,9.6-15.4,13.3-24.2,7.8L298.6,45c-14.1-9-32,3.8-28.1,20.1l15,62.5
	c2.4,9.9-4.7,19.6-14.9,20.4l-61.1,4.6c-17,1.3-24,22.5-11.1,33.6l31.2,27.1c7.8,5.2,15.2,11,21.8,17.8c11.4-4.7,23.7-7.2,36.4-7.2
	c6,0,11.8,0.7,17.4,1.8c7.1-55,53.7-97.8,110.6-97.8c61.8,0,112,50.2,112,112s-50.2,112-112,112c-1,0-1.8-0.3-2.8-0.3
	c13.8,13.2,24.6,29.5,30.2,48.3h27c6.3,0,12.4,1.8,17.6,5.3l45.1,29.7c14.2,9,31.9-4.2,27.9-20.8L546,352.8
	c-2.4-10.2,4.8-20.1,15.2-20.9l61.2-4.6c16.8-1.3,23.8-22.3,11-33.3L585.9,252.9L585.9,252.9z M383.3,312.8c10,4.5,21,7.2,32.7,7.2
	c44.1,0,80-35.9,80-80s-35.9-80-80-80c-43.3,0-78.4,34.6-79.8,77.5C362.7,253,380.8,280.6,383.3,312.8L383.3,312.8z"/>
</svg>
