<?xml version="1.0" encoding="utf-8"?>
<!-- Generator: Adobe Illustrator 22.1.0, SVG Export Plug-In . SVG Version: 6.00 Build 0)  -->
<svg version="1.1" id="Слой_1" xmlns="http://www.w3.org/2000/svg" xmlns:xlink="http://www.w3.org/1999/xlink" x="0px" y="0px"
	 viewBox="0 0 512 512" style="enable-background:new 0 0 512 512;" xml:space="preserve">
<style type="text/css">
	.st0{fill:#ABABAB;}
</style>
<path class="st0" d="M106.2,368.9h166c0,0,78.1,0,78.1-53.7c0-39.1-34.2-48.8-34.2-48.8c17.6-38.1-14.1-86.9-59.3-99.6
	c-29.9-8.3-77.3,1.9-91.9,45.9c-19.5-14.7-41.1-10.2-53.7-4.9C82,220,77,256.6,77,256.6s-58.3,0-58.3,56.1
	C18.7,342.4,33.2,368.9,106.2,368.9z"/>
<path class="st0" d="M86.3,439c-5.7,9.8-18.2,13.1-27.9,7.5c-9.8-5.7-13.1-18.2-7.5-27.9c5.7-9.8,38.1-25.2,38.1-25.2
	S91.9,429.3,86.3,439z"/>
<path class="st0" d="M149,494.8c-5.7,9.8-18.2,13.1-27.9,7.5c-9.8-5.7-13.1-18.2-7.5-27.9c5.7-9.8,38.1-25.2,38.1-25.2
	S154.7,485,149,494.8z"/>
<path class="st0" d="M492.6,237l-37.7-31.8c-6.2-5.3-6.2-14.9,0-20.1l37.7-31.8c10.2-8.6,4.8-25.3-8.5-26.2l-49.2-3.7
	c-8.1-0.6-13.8-8.3-11.9-16.2l11.7-47.9c3.1-13-11-23.2-22.3-16.2l-41.9,26c-6.9,4.2-16,1.3-19.1-6.2l-18.7-45.7
	c-5.1-12.3-22.5-12.3-27.6,0.2L286.4,63c-3.1,7.5-12.2,10.5-19.1,6.2l-41.9-26c-11.3-7-25.5,3.2-22.3,16.2l11.7,47.9
	c1.9,7.9-3.7,15.7-11.9,16.2l-49.2,3.7c-13.2,1-18.7,17.6-8.5,26.2l28.8,24.3c14.7-18.8,36.6-28.1,57.6-30.3
	c16.9-30.8,49.7-51.8,87.3-51.8c54.9,0,99.5,44.6,99.5,99.5c0,39.8-23.5,74.3-57.4,90.2c4.6,7.7,7.9,17.7,7.9,30.5
	c0,1.5-0.1,3-0.2,4.5c0.6,0.2,1.1,0.5,1.7,0.9l41.9,26c11.3,7,25.5-3.2,22.3-16.2L423,283.2c-1.9-7.9,3.7-15.7,11.9-16.2l49.2-3.7
	C497.3,262.3,502.7,245.7,492.6,237z"/>
<path class="st0" d="M395,195.2c0-41.9-34.2-76.1-76.1-76.1c-24.4,0-46.1,11.6-60.1,29.5c1.9,0.4,3.8,0.8,5.6,1.3
	c50.5,14.1,86.1,68.7,66.4,111.4c0,0,5.6,1.6,12.5,6C373.3,257.1,395,228.7,395,195.2z"/>
<polygon class="st0" points="245.2,311.6 175.4,424.1 217,419.4 194.4,501.1 194.4,501.1 290.3,385.8 234.2,390.3 276.3,315.8 "/>
</svg>
