<?xml version="1.0" encoding="utf-8"?>
<!-- Generator: Adobe Illustrator 22.1.0, SVG Export Plug-In . SVG Version: 6.00 Build 0)  -->
<svg version="1.1" id="Слой_1" xmlns="http://www.w3.org/2000/svg" xmlns:xlink="http://www.w3.org/1999/xlink" x="0px" y="0px"
	 viewBox="0 0 448 512" style="enable-background:new 0 0 448 512;" xml:space="preserve">
<style type="text/css">
	.st0{fill:#0055A0;}
</style>
<path class="st0" d="M438.2,355.9l-66.6-38.5l59.4-10.3c5.8-1.4,10.6-5.2,13.5-10.1c2.5-4.3,3.5-9.5,2.5-14.7
	c-2.1-11.1-12.7-18-23.6-15.5L338,297.9L255.9,256l82.1-41.9l85.4,31.1c10.9,2.6,21.5-4.4,23.6-15.5c2.1-11.1-5-22.2-16-24.8
	l-59.4-10.3l66.6-38.5c9.5-5.5,12.6-18.1,6.9-28.1s-18.1-13.6-27.7-8.1l-66.6,38.5l20.8-56.8c3.2-10.8-2.8-22.5-13.4-26.3
	c-10.7-3.7-21.9,2-25.2,12.8l-15.8,89.7l-72.4,41.9V136l69.6-58.6c7.7-8.2,7-20.9-1.5-28.2c-8.5-7.4-21.7-6.7-29.4,1.5l-38.6,46.5
	V20c0-11-9.3-20-20.8-20s-20.8,9-20.8,20v77.1l-38.6-46.5c-7.7-8.2-20.8-8.9-29.4-1.5c-8.5,7.4-9.2,20-1.5,28.2l69.6,58.6v83.9
	l-72.4-41.9l-15.8-89.7c-3.2-10.8-14.5-16.5-25.2-12.8c-10.7,3.7-16.7,15.5-13.4,26.3l20.8,56.8l-66.6-38.5
	C21,114.4,8.6,118,2.9,128s-2.7,22.6,6.9,28.1l66.6,38.5l-59.4,10.3c-10.9,2.6-18.1,13.7-16,24.8c2.1,11.1,12.7,18,23.6,15.5
	l85.4-31.1l82.1,41.9l-82.1,41.9l-85.4-31.1c-10.9-2.6-21.5,4.4-23.6,15.5c-2.1,11.1,5,22.2,16,24.8l59.4,10.3L9.8,355.9
	C0.2,361.4-2.9,374,2.9,384s18.1,13.6,27.7,8.1l66.6-38.5l-20.8,56.8c-1.7,5.8-0.8,11.8,2,16.8c2.5,4.3,6.4,7.8,11.4,9.5
	c10.7,3.7,21.9-2,25.2-12.8l15.8-89.7l72.4-41.9V376l-69.6,58.6c-7.7,8.2-7,20.9,1.5,28.2c8.5,7.4,21.7,6.7,29.4-1.5l38.6-46.5V492
	c0,11,9.3,20,20.8,20s20.8-9,20.8-20v-77.1l38.6,46.5c4.1,4.4,9.8,6.6,15.5,6.6c5,0,9.9-1.7,13.9-5.1c8.5-7.4,9.2-20,1.5-28.2
	L244.8,376v-83.9l72.4,41.9l15.8,89.7c3.2,10.8,14.5,16.5,25.2,12.8c10.7-3.7,16.7-15.5,13.4-26.3l-20.8-56.8l66.6,38.5
	c9.5,5.5,21.9,1.9,27.7-8.1C450.9,374,447.8,361.4,438.2,355.9z"/>
</svg>
